<svg id="Capa_1" data-name="Capa 1" xmlns="http://www.w3.org/2000/svg" viewBox="0 0 518.77 1879.67"><title>doctor</title><path d="M474,774.32s-5.85,81.94,5.86,129.93c2.49,10.24,41.05,46.82,72-3.51s0-153.35,0-153.35Z" transform="translate(-447.47 -237.18)" style="fill:#e8917c"/><path d="M519.68,587.63s-39.64,9.91-51.49,27.12c-26.55,38.57-15.62,294.14-15.62,294.14s52.77-47.86,88.76-63.47S519.68,587.63,519.68,587.63Z" transform="translate(-447.47 -237.18)" style="fill:#cedfef"/><path d="M454.54,785.59s56.14,55,67.27,70.23" transform="translate(-447.47 -237.18)" style="fill:none;stroke:#80a7ce;stroke-linecap:round;stroke-miterlimit:10;stroke-width:4.68231px"/><path d="M479.1,748.26s28.47,53,40.58,78.59" transform="translate(-447.47 -237.18)" style="fill:none;stroke:#80a7ce;stroke-linecap:round;stroke-miterlimit:10;stroke-width:4.68231px"/><path d="M834.63,2062.35s-2.88-54.6,0-70.92c0,0,4.75-11.41-.63-12.53s-46.32-.49-46.32-.49-8,2.72-4.16,11.63,6.35,86.24,3.61,99.31Z" transform="translate(-447.47 -237.18)" style="fill:#c2d9e6"/><path d="M786.28,2085.87s11.72,2.79,26.76-25.61c0,0,13.46-8.71,27.69-1.56,0,0,9,27.17,30.41,39.13a15.38,15.38,0,0,1,0,15.62s-21.57,8-81.7-.58C789.44,2112.87,782.32,2094.46,786.28,2085.87Z" transform="translate(-447.47 -237.18)" style="fill:#171c2d"/><path d="M871.14,2113.45a15.83,15.83,0,0,0,2-9.6c-19.29,10.29-85.9,1.8-86,1.8,1.14,4.16,2.31,7.22,2.31,7.22C849.57,2121.48,871.14,2113.45,871.14,2113.45Z" transform="translate(-447.47 -237.18)" style="fill:#171c2d"/><path d="M578.12,2062.35s2.87-54.6,0-70.92c0,0-4.75-11.41.64-12.53s46.32-.49,46.32-.49,8,2.72,4.15,11.63-6.35,86.24-3.61,99.31Z" transform="translate(-447.47 -237.18)" style="fill:#c2d9e6"/><path d="M626.48,2085.87s-11.73,2.79-26.77-25.61c0,0-13.45-8.71-27.69-1.56,0,0-9,27.17-30.41,39.13a15.38,15.38,0,0,0,0,15.62s21.57,8,81.7-.58C623.31,2112.87,630.44,2094.46,626.48,2085.87Z" transform="translate(-447.47 -237.18)" style="fill:#171c2d"/><path d="M541.61,2113.45a15.83,15.83,0,0,1-2-9.6c19.28,10.29,85.9,1.8,86,1.8-1.13,4.16-2.31,7.22-2.31,7.22C563.18,2121.48,541.61,2113.45,541.61,2113.45Z" transform="translate(-447.47 -237.18)" style="fill:#171c2d"/><path d="M882.76,1127.68l-343.9,8.57c-9.51,45.71-3.38,268.46-3.38,268.46,1.78,31.47,32.73,635.59,32.73,635.59l69.64,6.77s44.27-566,49.81-602.13c9.67-63,15.44-119.83,15.44-119.83l5.83.62,60.29,721.34h76S892,1400,882.76,1127.68Z" transform="translate(-447.47 -237.18)" style="fill:#3e3e3e"/><path d="M686.49,1318.87c-2.34-3.52-108.55-93.65-108.55-93.65" transform="translate(-447.47 -237.18)" style="fill:none;stroke:#292b2b;stroke-linecap:round;stroke-miterlimit:10;stroke-width:4.68231px"/><line x1="211.46" y1="1072.33" x2="120.79" y2="1011.57" style="fill:none;stroke:#292b2b;stroke-linecap:round;stroke-miterlimit:10;stroke-width:4.68231px"/><path d="M538.86,1136.25c-1.85,8.87-3.1,24.44-3.92,43.72,15.29,11.13,39.5,25.89,60.42,25.89,33.59,0,64.55-9.47,91.13,0,22.78,8.13,137.92,65.36,197.14,54.5.61-49.64.41-94.8-.87-132.68Z" transform="translate(-447.47 -237.18)" style="fill:#292b2a"/><path d="M817.39,573c-18-4-33.72-8.67-35.73-13-7.63-16.29-18.49-65.27-21.38-113.28-.71-12-86.83-64.49-86.83-64.49s1.77,114.93-24.46,166.9c0,0-26.46,16.89-53.63,26.35V634.4l222,33.75Z" transform="translate(-447.47 -237.18)" style="fill:#f3a990"/><path d="M734.22,541.6c16.25,1.16,29.26-4.77,38.29-11.09a513.32,513.32,0,0,1-10.9-67l-91.45-7.18a459.67,459.67,0,0,1-7.3,49.78C682.12,520.14,712.93,540.1,734.22,541.6Z" transform="translate(-447.47 -237.18)" style="fill:#e88a82"/><path d="M907.88,595.67c-30-9.07-54.35-18-87.5-28.27h0l-47.87-36.88c-25,44-66.13,57.12-66.13,57.12-48-28.59-50.23-56.14-50.23-56.14s-43.54,25.66-48.22,29.85h0l-88.25,26.29c0,106.63,22.34,280.69,19.18,321.54-9.23,119.39-9.62,238.43-9.62,238.42,1.31,16.13,184.54,21.43,184.54,21.43l170-17c21.31-10.68.58-234.7.58-234.7C894.41,825.84,907.88,595.67,907.88,595.67Z" transform="translate(-447.47 -237.18)" style="fill:#556db3"/><path d="M617.16,561.34s44.07,6.92,41.19,12.39l-14.8,21.94s39,2.43,52,9.36" transform="translate(-447.47 -237.18)" style="fill:none;stroke:#354f8f;stroke-linecap:round;stroke-miterlimit:10;stroke-width:4.68231px"/><path d="M613.76,557.26S626.46,691.48,672.85,768l-26.79,723.32s-104.41-14.72-143.34-51.6l17-852.11Z" transform="translate(-447.47 -237.18)" style="fill:#e2eefa"/><polygon points="175.81 311.09 225.39 530.84 220.25 669.66 147.89 498.87 169.69 459.99 105.69 437.53 140.32 330.17 175.81 311.09" style="fill:#c2d9e6"/><path d="M809.45,565.14s-39.8,4.68-45,7,14.31,15.47,14.31,15.47L709.84,605l-3.46,4.59s-2.94,167.79,0,191.19,1.74,92.65,0,106-10.43,234.75-7.21,248.28" transform="translate(-447.47 -237.18)" style="fill:none;stroke:#354f8f;stroke-linecap:round;stroke-miterlimit:10;stroke-width:4.68231px"/><polygon points="244.15 398.29 237.39 599.87 254.11 644.8 274.57 599.87 265.33 398.29 244.15 398.29" style="fill:#222349"/><path d="M800.64,552.17s-24.38,151-70.77,227.51l34.37,713.42s104.41-14.72,143.34-51.59l-4.8-845.84Z" transform="translate(-447.47 -237.18)" style="fill:#e2eefa"/><path d="M739.48,979.17c54.71,17.45,119.09,35.91,165.72,42.87l-.59-105L735.38,894.08Z" transform="translate(-447.47 -237.18)" style="fill:#9abedb"/><polygon points="349.27 309.98 282.4 542.5 289.52 690.13 377.19 497.76 355.39 458.89 419.39 436.43 384.76 329.06 349.27 309.98" style="fill:#c2d9e6"/><path d="M630.68,941.94s13.58,5,35.27,12.62l2.52-68.2H519.14c0,.46-2.25,2-5.49,4.13l-1.87,94.28C560.67,967.71,619.32,945.89,630.68,941.94Z" transform="translate(-447.47 -237.18)" style="fill:#9abedb"/><path d="M623.28,926.69s283.48,48.15,294.4,48.15c0,0,37.46,2.89,43.7-32.89s6.69-288.67,0-304.74c0,0-1.7-30.52-58.6-41.54L880.1,886.36Z" transform="translate(-447.47 -237.18)" style="fill:#cedfef"/><path d="M920.83,882,817,896.27,629.39,927.73c11.24,1.9,37,6.27,68.87,11.63,38.3-2,84.81-4.29,87.54-4.25,4.67.07,10.12-6.61,10.12-6.61s22.65,5,38.26,6.55,32-25.26,32-25.26,13.27-9.87,14.05-7.52,12.49,10.14,27.66,6.62S920.83,882,920.83,882Z" transform="translate(-447.47 -237.18)" style="fill:#9abedb;opacity:0.6000000000000001"/><path d="M953.42,766.19s-47.9,55.25-65.19,89.63" transform="translate(-447.47 -237.18)" style="fill:none;stroke:#80a7ce;stroke-linecap:round;stroke-miterlimit:10;stroke-width:4.68231px"/><path d="M924.07,756.33S904.67,796,893.23,837" transform="translate(-447.47 -237.18)" style="fill:none;stroke:#80a7ce;stroke-linecap:round;stroke-miterlimit:10;stroke-width:4.68231px"/><path d="M795.87,370.38s8.27-77-31.38-103.15c-11.14-7.35-27.87-11.8-45.62-12.29v.23c-17.75.49-34.48,4.94-45.62,12.27-39.64,26.12-31.37,103.15-31.37,103.15-22.63-20.14-25.72,9.6-18.49,31.22S641.58,421,641.58,421c5.31,48.88,50.3,81.08,71.25,84.92,2.2.42,4,.72,6,.94v-.23c2-.22,3.78-.52,6-.92,20.94-3.86,65.67-37.56,71.3-84.93,0,0,10.18,4.06,17.35-17.49S818.49,350.22,795.87,370.38Z" transform="translate(-447.47 -237.18)" style="fill:#f3a990"/><path d="M641.77,372.29s6.21-12.49,3.32-25.82,3.08-26.07,7.47-33.45,16.89-29.84,18.59-39.32c0,0,9.55-12.28,55.38-4.09,12.6,2.25,11.23,8.19,44.68,9,0,0,6.6,19.17,10.87,23.92s1.77,26.87,6.3,36.69,9.93,30.48,8.71,30.81l1.22-.33s1.84-4.55,11.33-5.64c0,0,1.64-31.41-2.63-48.19s-7.9-53.49-24.93-60.94c0,0-5.12-9.08-17.62-14s-88.73-11.47-115.73,27c0,0-12,13.93-13.35,29.49s-3.93,25.4-4.7,36.86,3.76,31,3.76,31Z" transform="translate(-447.47 -237.18)" style="fill:#222349"/><polygon points="189.91 129.88 202.46 131.53 205.09 125.57 187.92 125.57 189.91 129.88" style="fill:#222349"/><polygon points="350.28 131.21 337.73 132.86 335.1 126.89 352.27 126.89 350.28 131.21" style="fill:#222349"/><path d="M695.42,350.17a6.15,6.15,0,0,1-4.68,4.8c-4.29,1.3-17-3-20.22-2.4s-12.17,2.65-12.17,2.65,6.4-7.15,12.17-8.32S697.13,347,695.42,350.17Z" transform="translate(-447.47 -237.18)" style="fill:#222349"/><path d="M737.86,350.17a6.15,6.15,0,0,0,4.68,4.8c4.29,1.3,17-3,20.21-2.4s12.17,2.65,12.17,2.65-6.4-7.15-12.17-8.32S736.14,347,737.86,350.17Z" transform="translate(-447.47 -237.18)" style="fill:#222349"/><path d="M664.4,375.82s10.83-14.19,27.21-2.49c0,0-.58,2.93-3.22,2.49S679.32,368.06,664.4,375.82Z" transform="translate(-447.47 -237.18)" style="fill:#222349"/><path d="M684.86,372.29s.39,8.07-7.56,8.07c-7.08,0-6.1-8.07-6.1-8.07S681.61,370.22,684.86,372.29Z" transform="translate(-447.47 -237.18)" style="fill:#222349"/><path d="M771.21,375.82s-10.82-14.19-27.21-2.49c0,0,.58,2.93,3.22,2.49S756.29,368.06,771.21,375.82Z" transform="translate(-447.47 -237.18)" style="fill:#222349"/><path d="M750.76,372.29s-.4,8.07,7.56,8.07c7.07,0,6.09-8.07,6.09-8.07S754,370.22,750.76,372.29Z" transform="translate(-447.47 -237.18)" style="fill:#222349"/><path d="M741.9,357.44s-18.73,22.92-14.83,55.4" transform="translate(-447.47 -237.18)" style="fill:none;stroke:#bc6446;stroke-miterlimit:10;stroke-width:2.3411600000000004px"/><path d="M634.44,365.35S649,396.46,654,416.06c0,0,7.83-1.42,8.45-4.07,0,0-16.85-37.78-28-52.12C634.44,359.87,630.39,360.28,634.44,365.35Z" transform="translate(-447.47 -237.18)" style="fill:#c2d9e6"/><path d="M640.1,421s5.58,1.19,7.45,2.35.93,7.74,0,9-7.45-5.68-7.45-5.68S636.45,423.37,640.1,421Z" transform="translate(-447.47 -237.18)" style="fill:#c2d9e6"/><path d="M801.13,365.35s-14.6,31.11-19.57,50.71c0,0-7.83-1.42-8.45-4.07,0,0,16.85-37.78,28-52.12C801.13,359.87,805.18,360.28,801.13,365.35Z" transform="translate(-447.47 -237.18)" style="fill:#c2d9e6"/><path d="M795.47,421s-5.58,1.19-7.45,2.35-.94,7.74,0,9,7.45-5.68,7.45-5.68S799.12,423.37,795.47,421Z" transform="translate(-447.47 -237.18)" style="fill:#c2d9e6"/><path d="M757.49,408a97.09,97.09,0,0,0-38.67-9.83A97,97,0,0,0,680.16,408s-22.54,6.83-35,4.8c0,0-4.22,86.24,73.69,93.75,77.91-7.51,72.24-93.75,72.24-93.75C778.57,414.87,757.49,408,757.49,408Z" transform="translate(-447.47 -237.18)" style="fill:#c2d9e6"/><path d="M623.28,388s1.82-14.88,5-15.68,10.57,17.92,10.2,20.27-9,7-5.84,8.58,8.2-.78,9,2.35-1.6,10.13-3.14,9.35" transform="translate(-447.47 -237.18)" style="fill:none;stroke:#bc6446;stroke-linecap:round;stroke-miterlimit:10;stroke-width:2.3411600000000004px"/><path d="M628.28,392.58s-.84-11.72,4.85-14.62" transform="translate(-447.47 -237.18)" style="fill:none;stroke:#bc6446;stroke-linecap:round;stroke-miterlimit:10;stroke-width:2.3411600000000004px"/><path d="M814.41,388s-1.81-14.88-5-15.68-10.56,17.92-10.2,20.27,9,7,5.85,8.58-8.21-.78-9,2.35,1.61,10.13,3.14,9.35" transform="translate(-447.47 -237.18)" style="fill:none;stroke:#bc6446;stroke-linecap:round;stroke-miterlimit:10;stroke-width:2.3411600000000004px"/><path d="M809.41,392.58s.84-11.72-4.85-14.62" transform="translate(-447.47 -237.18)" style="fill:none;stroke:#bc6446;stroke-linecap:round;stroke-miterlimit:10;stroke-width:2.3411600000000004px"/><path d="M607.93,561.34" transform="translate(-447.47 -237.18)" style="fill:none;stroke:#ab2d33;stroke-linecap:round;stroke-miterlimit:10;stroke-width:4.68231px"/><line x1="263.87" y1="1072.33" x2="266.32" y2="939.27" style="fill:none;stroke:#292b2b;stroke-linecap:round;stroke-miterlimit:10;stroke-width:4.68231px"/><path d="M666.59,1522.55s-96.46,164-105.66,180.27" transform="translate(-447.47 -237.18)" style="fill:none;stroke:#292b2b;stroke-linecap:round;stroke-miterlimit:10;stroke-width:4.68231px"/><path d="M658.93,1570.54s-91.93,186-98,197.83" transform="translate(-447.47 -237.18)" style="fill:none;stroke:#292b2b;stroke-linecap:round;stroke-miterlimit:10;stroke-width:4.68231px"/><path d="M756.72,1669.46s73.75,127,83.12,143.39" transform="translate(-447.47 -237.18)" style="fill:none;stroke:#292b2b;stroke-linecap:round;stroke-miterlimit:10;stroke-width:4.68231px"/><path d="M771.65,1723.35s73.6,137.67,78.85,151.54" transform="translate(-447.47 -237.18)" style="fill:none;stroke:#292b2b;stroke-linecap:round;stroke-miterlimit:10;stroke-width:4.68231px"/><path d="M771.21,421s-40.58-16-53.09-14.42-45.27,9.46-45.27,9.46" transform="translate(-447.47 -237.18)" style="fill:none;stroke:#8eabda;stroke-linecap:round;stroke-miterlimit:10;stroke-width:4.68231px"/><path d="M726.54,421s54,6.17,55.54,11.48" transform="translate(-447.47 -237.18)" style="fill:none;stroke:#8eabda;stroke-linecap:round;stroke-miterlimit:10;stroke-width:4.68231px"/><path d="M761.8,476.83s-35.52,39-83.31,7" transform="translate(-447.47 -237.18)" style="fill:none;stroke:#8eabda;stroke-linecap:round;stroke-miterlimit:10;stroke-width:4.68231px"/><path d="M668.93,465.91s71,8.62,81.82,3.13" transform="translate(-447.47 -237.18)" style="fill:none;stroke:#8eabda;stroke-linecap:round;stroke-miterlimit:10;stroke-width:4.68231px"/><path d="M684.86,457.5c-.32,2.16,72.89-3,79.6-5.09" transform="translate(-447.47 -237.18)" style="fill:none;stroke:#8eabda;stroke-linecap:round;stroke-miterlimit:10;stroke-width:4.68231px"/><path d="M788.35,368a8.65,8.65,0,0,0-.8-2.88,14.85,14.85,0,0,0-1.34-2.31,15.5,15.5,0,0,0-1.65-2.08h0l-.38-.38-.57-.17c-2-.57-4-1.15-5.94-1.67l-3-.63-1.13-.23a2.11,2.11,0,0,0-1.12-.2c-.27-.05-.53-.12-.8-.15-2.07-.22-4.11-.58-6.2-.62l-3.13-.14-3.13.08a29.94,29.94,0,0,0-3.14.23,27.41,27.41,0,0,0-3.13.44c-1,.21-2.09.34-3.11.63s-2.06.51-3.06.85-2,.65-3,1.09-2,.83-2.93,1.33a27.27,27.27,0,0,0-2.82,1.61,20.49,20.49,0,0,0-2.73,2l-.22.21L733.83,367a10.86,10.86,0,0,0-.83,1.88,8.81,8.81,0,0,0-.57,1.92,11.12,11.12,0,0,0-.34,1.94c-.05.64-.11,1.3-.13,1.94l.06,1.89c0,.64.13,1.23.2,1.86a15.2,15.2,0,0,0,.32,1.81,38.9,38.9,0,0,0,2.13,6.9,43.68,43.68,0,0,0,3.27,6.34l.2.31.17.06h0l2.13,1c.72.32,1.4.69,2.13,1,1.48.53,2.9,1.2,4.43,1.6a35.91,35.91,0,0,0,4.56,1.18,40.75,40.75,0,0,0,4.67.69l2.36.08c.79.05,1.57,0,2.36,0a28.65,28.65,0,0,0,4.71-.52,32.17,32.17,0,0,0,4.61-1.19,24.74,24.74,0,0,0,4.42-2l.08-.06.1-.1a41.7,41.7,0,0,0,3-3.64,35.32,35.32,0,0,0,2.45-4,53,53,0,0,0,3.34-8.75c.46-1.46.88-2.92,1.42-4.17a8.26,8.26,0,0,1,.81-1.47c.14-.18.6-.63.66-.7a5.77,5.77,0,0,0,1.07-1.31A5.22,5.22,0,0,0,788.35,368Zm-10.22,18.67a31.29,31.29,0,0,1-2.08,3.87A37,37,0,0,1,773.5,394a22.83,22.83,0,0,1-3.85,1.85,31.32,31.32,0,0,1-8.79,1.85c-.75,0-1.5.13-2.25.09l-2.27-.09a37.5,37.5,0,0,1-4.48-.66,34.9,34.9,0,0,1-4.39-1.13c-1.46-.41-2.82-1.11-4.24-1.65s-2.52-1.27-3.76-1.93a57.8,57.8,0,0,1-2-6.23,36.92,36.92,0,0,1-1.22-6.51,11,11,0,0,1-.1-1.62c0-.54-.08-1.07,0-1.6l.07-1.57.22-1.51a9.31,9.31,0,0,1,.35-1.45,5.12,5.12,0,0,1,.49-1.36,6.42,6.42,0,0,1,.62-1.26l.64-.94a20.15,20.15,0,0,1,2-1.39,26.74,26.74,0,0,1,2.43-1.3,25.16,25.16,0,0,1,2.56-1.08c.86-.38,1.79-.6,2.67-.9s1.83-.45,2.74-.69,1.86-.33,2.78-.51,1.88-.23,2.83-.33,1.89-.22,2.84-.22l2.87-.09,2.87.13c1.92,0,3.83.37,5.75.54,1,.08,1.91.3,2.87.45l2.87.49,1.18.28c3,4.34,3.5,9.4,3.35,13.08-.12.49-.23,1-.34,1.48A42.7,42.7,0,0,1,778.13,386.71Z" transform="translate(-447.47 -237.18)" style="fill:#222349"/><path d="M649.49,371.37a5.77,5.77,0,0,0,1.07,1.31c.06.07.52.52.66.7a9,9,0,0,1,.81,1.47c.54,1.25,1,2.71,1.42,4.17a53,53,0,0,0,3.34,8.75,35.32,35.32,0,0,0,2.45,4,43.47,43.47,0,0,0,3,3.64l.11.1.08.06a24.74,24.74,0,0,0,4.42,2,31.83,31.83,0,0,0,4.61,1.19,28.65,28.65,0,0,0,4.71.52c.78,0,1.57.08,2.36,0l2.36-.08a40.75,40.75,0,0,0,4.67-.69,35.91,35.91,0,0,0,4.56-1.18c1.52-.4,2.95-1.07,4.43-1.6.73-.29,1.41-.66,2.13-1l2.13-1h0l.17-.06.2-.31a43.68,43.68,0,0,0,3.27-6.34,38.9,38.9,0,0,0,2.13-6.9,15.2,15.2,0,0,0,.32-1.81c.07-.63.19-1.22.2-1.86l.06-1.89c0-.64-.08-1.3-.13-1.94a11.12,11.12,0,0,0-.34-1.94,8.81,8.81,0,0,0-.57-1.92,11.67,11.67,0,0,0-.83-1.88l-1.16-1.87-.22-.21a20.49,20.49,0,0,0-2.73-2,27.27,27.27,0,0,0-2.82-1.61c-1-.5-1.94-.92-2.93-1.33s-2-.71-3-1.09-2-.56-3.06-.85-2.07-.42-3.11-.63a27.41,27.41,0,0,0-3.13-.44,30,30,0,0,0-3.13-.23l-3.15-.08-3.12.14c-2.09,0-4.14.4-6.2.62-.27,0-.53.1-.8.15a2.11,2.11,0,0,0-1.12.2l-1.13.23-3,.63c-2,.52-4,1.1-5.94,1.67l-.57.17-.38.38h0a15.5,15.5,0,0,0-1.65,2.08,14.85,14.85,0,0,0-1.34,2.31,8.65,8.65,0,0,0-.8,2.88A5.28,5.28,0,0,0,649.49,371.37Zm6.84,6.88c-.11-.49-.22-1-.34-1.48-.15-3.68.35-8.74,3.35-13.08l1.18-.28,2.87-.49c1-.15,1.91-.37,2.87-.45,1.92-.17,3.83-.53,5.75-.54l2.87-.13,2.87.09c1,0,1.9.13,2.84.22s1.9.15,2.82.33,1.88.27,2.79.51,1.85.4,2.74.69,1.81.52,2.66.9a25.33,25.33,0,0,1,2.57,1.08,26.74,26.74,0,0,1,2.43,1.3,18.84,18.84,0,0,1,2,1.39l.64.94a6.48,6.48,0,0,1,.64,1.26,5.48,5.48,0,0,1,.48,1.36,8.29,8.29,0,0,1,.34,1.45l.23,1.51.07,1.57c0,.53,0,1.06,0,1.6a12.58,12.58,0,0,1-.1,1.62,36.06,36.06,0,0,1-1.23,6.51,55.6,55.6,0,0,1-2,6.23c-1.24.66-2.48,1.34-3.76,1.93s-2.78,1.24-4.24,1.65a34.9,34.9,0,0,1-4.39,1.13,37.66,37.66,0,0,1-4.49.66l-2.26.09c-.75,0-1.5-.07-2.26-.09a31.35,31.35,0,0,1-8.78-1.85A23.31,23.31,0,0,1,663.6,394a36.86,36.86,0,0,1-2.54-3.45,31.29,31.29,0,0,1-2.08-3.87A42.06,42.06,0,0,1,656.33,378.25Z" transform="translate(-447.47 -237.18)" style="fill:#222349"/><path d="M703.18,371.37s17.88-4.16,31-1.06l.77-5.23s-14.83-6-34.73,1.29Z" transform="translate(-447.47 -237.18)" style="fill:#222349"/><path d="M475.43,878.17s19-28.65,77.69-28.4,244,34.58,278.73,14.2c14.51-8.52,54.08-47.77,61.38-48s60.86,21.72,60.18,31.11-.2,7.14-18,2.71S893.23,837,893.23,837l27.58,30.14s9.55,13,0,24.16c0,0-8.49,8.16-13.89,8.16,0,0-5.49,4.46-11.15-.33a59.92,59.92,0,0,1-8.74-9H871s-21.2,29.19-39.11,27.46c-24-2.31-32.38-6.11-32.38-6.11s-25.63,1.17-50.22,4.68-229.54,24.7-254.12,10.46S469,885.05,475.43,878.17Z" transform="translate(-447.47 -237.18)" style="fill:#f3a990"/><path d="M595.36,852.68s-17.93-16.23-19.49-25.83-17.27-39.26-24.18-47.07S487.43,791,487.43,791.49c0,0-2.07,7.8,10.41,9.36l28.1-5.52s-17.57,11.77-24.19,20S490,835,492.38,837s16.39-12,16.39-12-17.17,26-10.93,24.73S519.14,837,519.14,837s-9.44,19-8.7,18.78,19.1-6.05,30.89-6.05S595.36,852.68,595.36,852.68Z" transform="translate(-447.47 -237.18)" style="fill:#f3a990"/><path d="M774.92,282.37" transform="translate(-447.47 -237.18)" style="fill:none;stroke:#26183b;stroke-miterlimit:10;stroke-width:2.3411600000000004px"/><path d="M776.67,302.54" transform="translate(-447.47 -237.18)" style="fill:none;stroke:#26183b;stroke-miterlimit:10;stroke-width:2.3411600000000004px"/><path d="M451.42,873.74s-22.82,66.53,41.15,66.1c0,0,270.86-20.69,303.31-25.45,9.26-1.35,23.15-52.86,13.57-52.86C736.94,861.53,519.09,824.74,451.42,873.74Z" transform="translate(-447.47 -237.18)" style="fill:#cedfef"/><path d="M678.49,981.38a6.56,6.56,0,1,0,6.56-6.57A6.56,6.56,0,0,0,678.49,981.38Z" transform="translate(-447.47 -237.18)" style="fill:#354f8f"/><path d="M678.49,1042.7a6.56,6.56,0,1,0,6.56-6.56A6.57,6.57,0,0,0,678.49,1042.7Z" transform="translate(-447.47 -237.18)" style="fill:#354f8f"/><path d="M678.49,1104a6.56,6.56,0,1,0,6.56-6.56A6.57,6.57,0,0,0,678.49,1104Z" transform="translate(-447.47 -237.18)" style="fill:#354f8f"/><polygon points="338.89 656.9 333.16 686.06 317.6 686.06 323.33 656.9 338.89 656.9" style="fill:#c2d9e6"/><path d="M878.23,784.49a438.71,438.71,0,0,0,6.88-56.06,191.16,191.16,0,0,0-.38-27.93,77.05,77.05,0,0,0-2.45-13.34c-1.22-4.21-3.07-8.2-5.66-10.75l-.29-.33a16.41,16.41,0,0,0-3.56-2.45,22.52,22.52,0,0,0-4.53-1.76,28.39,28.39,0,0,0-10-.77,4.79,4.79,0,0,1-.89-9.53c.2,0,.4,0,.6,0h.1a44.69,44.69,0,0,1,12.76,2.28,31,31,0,0,1,6,2.88,22.09,22.09,0,0,1,5.46,4.67l-.29-.32c4,4.36,5.74,9.45,7,14.31a83.4,83.4,0,0,1,2,14.64,195.34,195.34,0,0,1-1,28.77,441.11,441.11,0,0,1-9.6,56.17,1.1,1.1,0,0,1-1.31.81A1.12,1.12,0,0,1,878.23,784.49Z" transform="translate(-447.47 -237.18)" style="fill:#253958"/><path d="M835.9,785a439.37,439.37,0,0,1-9.61-56.17,196.73,196.73,0,0,1-1-28.77,83.43,83.43,0,0,1,2-14.64c1.22-4.86,3-10,7-14.31l-.29.32a21.88,21.88,0,0,1,5.45-4.67,31.26,31.26,0,0,1,6-2.88,44.75,44.75,0,0,1,12.76-2.28h.08a4.79,4.79,0,1,1,.35,9.57c-.2,0-.43,0-.62,0a28.41,28.41,0,0,0-10,.77,22.76,22.76,0,0,0-4.53,1.76,16.41,16.41,0,0,0-3.56,2.45l-.29.33C837,679,835.2,683,834,687.16a76.11,76.11,0,0,0-2.44,13.34,191.15,191.15,0,0,0-.39,27.93A440.51,440.51,0,0,0,838,784.49a1.07,1.07,0,0,1-.84,1.28A1.11,1.11,0,0,1,835.9,785Z" transform="translate(-447.47 -237.18)" style="fill:#253958"/><path d="M869.08,792.75c1.69,2.29,5.5,2.35,8.49.13s4-5.87,2.36-8.16-5.5-2.35-8.5-.13S867.39,790.46,869.08,792.75Z" transform="translate(-447.47 -237.18)" style="fill:#234d77"/><path d="M846.59,792.75c-1.7,2.29-5.5,2.35-8.49.13s-4.05-5.87-2.36-8.16,5.5-2.35,8.5-.13S848.28,790.46,846.59,792.75Z" transform="translate(-447.47 -237.18)" style="fill:#234d77"/><path d="M840.19,564.53s17.94,49.22,17.94,101.8" transform="translate(-447.47 -237.18)" style="fill:none;stroke:#253958;stroke-linecap:round;stroke-miterlimit:10;stroke-width:9.545050000000002px"/><polygon points="231.02 362.77 244.15 398.29 265.33 398.29 277.19 362.77 231.02 362.77" style="fill:#222349"/><path d="M591.37,558.54s-26.45,90.93-25.3,168.79" transform="translate(-447.47 -237.18)" style="fill:none;stroke:#253958;stroke-linecap:round;stroke-miterlimit:10;stroke-width:9.545050000000002px"/><path d="M540.7,749c-1.65,14.44,6.59,27.25,18.41,28.6s22.73-9.28,24.38-23.72-6.6-27.25-18.42-28.59S542.34,734.59,540.7,749Z" transform="translate(-447.47 -237.18)" style="fill:#253958"/><path d="M544.5,749.94c-1,9,4.12,17,11.52,17.89S570.23,762,571.26,753s-4.13-17-11.52-17.89S545.53,740.91,544.5,749.94Z" transform="translate(-447.47 -237.18)" style="fill:#e2eefa"/></svg>